<svg width="66" height="93" viewBox="0 0 66 93" fill="none" xmlns="http://www.w3.org/2000/svg">
<path d="M25.1524 92.2469C20.7467 92.2469 16.2969 91.6742 11.8031 90.5287C7.39744 89.3832 3.6526 87.8412 0.568613 85.9027L3.47637 66.4736H7.04499L10.3493 76.6508C11.5829 80.7921 13.3451 83.788 15.6361 85.6384C17.9271 87.4007 21.2313 88.2818 25.5489 88.2818C30.6595 88.2818 34.7128 86.8279 37.7086 83.9202C40.7045 81.0124 42.2024 77.3997 42.2024 73.0821C42.2024 70.8793 41.85 68.8086 41.1451 66.8701C40.4402 64.8435 39.1185 62.7728 37.1799 60.6581C35.2414 58.4552 32.3777 55.988 28.5888 53.2565C23.9188 49.9082 20.2621 46.7361 17.6187 43.7402C15.0634 40.6562 13.3011 37.6603 12.3318 34.7526C11.3626 31.8448 10.8779 28.9371 10.8779 26.0293C10.8779 20.9187 12.1997 16.4249 14.8431 12.5479C17.4865 8.67086 21.1432 5.67498 25.8133 3.56025C30.4833 1.3574 35.8142 0.255981 41.8059 0.255981C45.9473 0.255981 50.1768 0.828722 54.4943 1.9742C58.8119 3.11968 62.4686 4.70573 65.4645 6.73235L62.0281 25.3684H58.3273L56.2126 16.7773C55.0671 12.3716 53.3929 9.19954 51.1901 7.26103C48.9872 5.32253 45.727 4.35328 41.4094 4.35328C37.1799 4.35328 33.4792 5.58688 30.3071 8.05407C27.2231 10.5213 25.6811 13.9577 25.6811 18.3634C25.6811 21.9761 26.6503 25.2803 28.5888 28.2762C30.6155 31.2721 34.1841 34.6645 39.2947 38.4534C46.3438 43.564 51.1901 48.19 53.8335 52.3313C56.4769 56.4727 57.7986 60.8784 57.7986 65.5484C57.7986 71.0115 56.3888 75.7696 53.5691 79.8229C50.8376 83.788 47.0047 86.872 42.0703 89.0748C37.224 91.1895 31.5847 92.2469 25.1524 92.2469Z" fill="white"/>
</svg>
